PathFileType	4	(X/Y/Z)	 s06c0101.trc
DataRate	CameraRate	NumFrames	NumMarkers	Units	OrigDataRate	OrigDataStartFrame	OrigNumFrames
200	200	4	49	mm	200	251	2000
Frame#	Time	racr			lacr			c7			jug			rlel			rdr			llel			ldr			s2			lic			ric			lasi			rasi			rpsi			lpsi			rgt			lgt			rth1			rth2			rth3			rth4			rlfc			rmfc			rsh1			rsh2			rsh3			rsh4			rlmal			rmmal			rcal			rtoe			rmt5			lth1			lth2			lth4			lth3			llfc			lmfc			llmal			lcal			lmt5			lsh1			lsh2			lsh3			lsh4			ltoe			SBIKE			LBIKE			RBIKE			
		X1	Y1	Z1	X2	Y2	Z2	X3	Y3	Z3	X4	Y4	Z4	X5	Y5	Z5	X6	Y6	Z6	X7	Y7	Z7	X8	Y8	Z8	X9	Y9	Z9	X10	Y10	Z10	X11	Y11	Z11	X12	Y12	Z12	X13	Y13	Z13	X14	Y14	Z14	X15	Y15	Z15	X16	Y16	Z16	X17	Y17	Z17	X18	Y18	Z18	X19	Y19	Z19	X20	Y20	Z20	X21	Y21	Z21	X22	Y22	Z22	X23	Y23	Z23	X24	Y24	Z24	X25	Y25	Z25	X26	Y26	Z26	X27	Y27	Z27	X28	Y28	Z28	X29	Y29	Z29	X30	Y30	Z30	X31	Y31	Z31	X32	Y32	Z32	X33	Y33	Z33	X34	Y34	Z34	X35	Y35	Z35	X36	Y36	Z36	X37	Y37	Z37	X38	Y38	Z38	X39	Y39	Z39	X40	Y40	Z40	X41	Y41	Z41	X42	Y42	Z42	X43	Y43	Z43	X44	Y44	Z44	X45	Y45	Z45	X46	Y46	Z46	X47	Y47	Z47	X48	Y48	Z48	X49	Y49	Z49	
251	1.2550	499.644369	1334.781690	-60.321572	511.754046	1331.827887	-362.170508	486.947884	1404.146198	-214.551996	500.971884	1247.069157	-206.040860	522.261629	1086.506958	52.133379	707.168710	935.251087	-37.553829	523.461271	1079.939959	-467.841981	712.245566	927.541464	-403.543010	-31.076701	1155.930609	-221.696729	152.379153	1106.658912	-388.790113	123.368357	1119.473485	-56.829147	159.258334	1044.619168	-357.999631	145.877207	1072.157448	-81.457372	9.898365	1194.945451	-197.138459	6.566596	1186.184280	-259.178981	94.094910	1073.496664	-22.716770	106.269095	1040.580753	-424.672896	190.858185	998.928898	-16.761885	275.710204	966.095593	-19.419781	330.315414	898.649876	-20.886604	294.075077	994.200472	-37.629172	390.315513	810.973541	-38.757920	388.418301	784.461430	-147.539271	357.457105	691.799139	-15.393599	352.919173	605.979200	-35.427076	308.620206	531.664936	-39.862349	375.444749	604.384429	-68.558225	274.390938	456.092894	-45.650604	306.689187	465.043574	-140.835235	210.099121	433.438766	-94.157199	481.485772	382.412760	-102.480374	384.847079	374.446987	-28.933208	155.931289	932.983539	-435.205812	227.484840	883.297774	-429.801181	254.645030	905.988896	-417.197034	265.123775	802.585856	-425.477397	294.271525	695.286170	-395.962296	291.647337	681.488210	-279.131004	55.545072	408.564400	-386.989725	-9.343055	436.782328	-338.466530	89.940736	262.907770	-400.490885	235.911557	608.640865	-417.802248	197.529408	533.515793	-397.399334	127.640556	480.238647	-402.057877	217.061198	521.893151	-364.562818	149.771491	203.977004	-340.733266	-157.510117	859.232362	-215.387306	-48.478810	84.138532	-419.588038	-49.952246	79.714365	-22.238976	
252	1.2600	501.128494	1333.429540	-61.054756	513.899187	1329.597858	-362.030623	489.244703	1403.080650	-214.765565	502.284883	1245.602931	-205.645742	522.682244	1086.022743	52.685868	707.243721	935.328990	-37.535096	523.482502	1078.662153	-469.011483	712.527573	927.345285	-403.587056	-30.533625	1157.852706	-222.187303	153.131504	1107.696945	-389.600844	123.623923	1120.945763	-57.329535	159.287760	1045.718218	-358.534431	145.830440	1073.412543	-81.813587	10.802622	1196.714733	-197.801673	7.358656	1187.929955	-259.856219	94.374954	1075.608850	-23.302057	106.174239	1042.620913	-425.310992	190.682198	1000.430232	-16.711624	275.183356	966.896184	-19.538688	329.288240	899.061792	-20.779903	293.698290	994.667526	-37.851642	388.980659	810.987300	-38.693037	387.155149	784.840486	-147.812676	356.578345	691.588713	-15.240334	352.451888	605.775317	-34.525929	308.307198	531.295162	-39.758060	375.012310	604.154019	-68.301280	274.534290	455.478565	-45.716245	306.698242	464.343599	-140.830914	210.243599	432.804431	-94.165761	481.705310	381.806349	-102.388179	385.013607	373.874472	-28.891448	155.933859	935.257505	-436.181541	227.385940	885.479089	-430.484284	254.572370	908.170486	-418.104471	264.915906	804.645293	-425.776266	293.671664	696.793230	-396.572837	291.213983	683.361206	-279.482690	54.864142	409.594904	-386.775475	-10.232817	437.504270	-338.125426	89.527626	263.836606	-400.345818	235.092912	609.986143	-418.193998	196.746425	534.821975	-397.674912	126.643358	481.740769	-401.793297	216.550203	523.120354	-365.102403	149.491115	204.953033	-340.813188	-157.433670	859.242845	-215.198962	-48.448372	84.161279	-419.585235	-49.903568	79.732918	-22.238677	
253	1.2650	503.102498	1332.441986	-61.356568	515.972638	1327.510766	-361.739402	491.554032	1402.125458	-214.950556	503.517398	1244.200421	-205.311652	523.091256	1085.447314	53.212043	707.391145	935.338430	-37.533820	524.032127	1077.422049	-469.660952	712.819339	927.162145	-403.624374	-29.884025	1159.771413	-222.672589	153.825476	1108.793376	-390.333469	123.910347	1122.414456	-57.571722	159.272499	1046.745958	-359.097227	145.959568	1074.755332	-81.952965	11.596154	1198.546603	-198.465529	8.150402	1189.691268	-260.483601	94.598840	1077.762444	-24.003871	106.305971	1044.883434	-426.139358	190.367084	1001.942588	-17.038675	274.629146	967.759065	-19.665424	328.294581	899.664475	-20.606643	293.368127	995.539960	-37.910265	387.936196	811.051021	-38.552549	386.279419	785.299838	-147.877173	355.790812	691.554240	-15.082436	352.050856	605.708893	-34.207214	308.171979	531.112281	-39.627207	374.728045	604.126030	-67.974242	274.841274	454.980381	-45.737146	306.933773	463.826011	-140.736127	210.574272	432.407879	-94.124364	481.915616	381.054996	-102.311940	385.231461	373.268107	-28.880876	155.880755	937.511746	-437.023694	227.180117	887.624776	-431.114967	254.388571	910.265840	-418.982091	264.551261	806.687489	-426.028013	292.851196	698.123931	-397.217141	290.753413	685.015509	-279.895165	54.020890	410.612455	-386.620572	-11.131390	438.050253	-338.024640	89.253410	264.781399	-400.302569	234.137384	611.086508	-418.824179	195.820018	535.964767	-398.061441	125.538792	482.841543	-401.507308	215.764576	524.167764	-365.607585	149.449021	206.163224	-340.717981	-157.428849	859.236520	-215.036974	-48.436520	84.182619	-419.575948	-49.896824	79.734470	-22.231444	
254	1.2700	505.077904	1331.447892	-61.671934	517.930446	1325.846120	-361.253582	493.757739	1401.329126	-215.035026	504.746446	1242.805592	-204.870098	523.533424	1084.718550	53.612035	707.566518	935.350424	-37.571602	524.809137	1076.378452	-470.119313	713.055315	927.009193	-403.694963	-29.099195	1161.784511	-223.435059	154.449404	1109.908858	-391.099832	124.226761	1123.881438	-57.750240	159.273168	1048.005587	-359.709656	146.095194	1076.056479	-81.969036	12.632567	1200.344849	-199.206632	9.060764	1191.446920	-261.186568	94.843321	1080.095746	-24.744909	106.058499	1046.859676	-426.132432	189.995203	1003.583762	-17.176400	274.046995	968.867229	-19.883337	327.346711	900.331143	-20.402704	293.038219	996.397838	-37.912194	387.067729	811.356257	-38.191461	385.558538	785.751449	-147.805292	355.144146	691.660175	-14.868057	351.789208	605.766965	-33.933734	308.130633	531.005328	-39.489626	374.588728	604.199459	-67.638366	275.313833	454.627865	-45.654291	307.403330	463.422054	-140.703330	211.025710	432.227835	-94.060536	482.266446	380.159601	-102.336201	385.537283	372.645403	-28.819375	155.771496	939.772609	-437.724595	226.850940	889.567181	-431.624651	254.217950	912.220829	-419.737531	263.802081	808.330318	-425.974177	291.856478	699.246695	-397.946910	290.208181	686.299249	-280.387393	53.043513	411.398026	-386.522007	-12.201160	438.477957	-337.902809	88.959920	265.592508	-400.226318	233.067466	611.953775	-419.390764	194.769674	536.811376	-398.527418	124.396389	483.912136	-401.567248	214.835852	525.073203	-366.130846	149.421411	207.126397	-340.812222	-157.491223	859.295311	-214.893571	-48.432145	84.202883	-419.585107	-49.888998	79.737420	-22.227652	
